inDegrees=yes
name=IK-live
DataType=double
version=3
OpenSimVersion=4.1
endheader
time	pelvis_tilt	pelvis_list	pelvis_rotation	pelvis_tx	pelvis_ty	pelvis_tz	hip_flexion_r	hip_adduction_r	hip_rotation_r	knee_angle_r	ankle_angle_r	subtalar_angle_r	mtp_angle_r	hip_flexion_l	hip_adduction_l	hip_rotation_l	knee_angle_l	ankle_angle_l	subtalar_angle_l	mtp_angle_l	lumbar_extension	lumbar_bending	lumbar_rotation	neck_flex	neck_latbend	neck_rot	arm_flex_r	arm_add_r	arm_rot_r	elbow_flex_r	pro_sup_r	wrist_flex_r	wrist_dev_r	arm_flex_l	arm_add_l	arm_rot_l	elbow_flex_l	pro_sup_l	wrist_flex_l	wrist_dev_l
8.2249003	69.88776282568645	43.39968798159187	31.17884376271361	0.2341366603171506	0.04326292228651554	-1.326684523481465	-22.57117169827992	-1.591976316804377	-3.241458145969817	5.899560354604904	2.451982624139334	1.987972377786656	0	-24.74788768789517	-3.395140484746916	-11.58000132048591	9.793848132074926	-0.4439473045988533	4.250290820099795	0	-21.37711699760957	1.659277491615732	3.206407148933037	0	0	0	0.790520688324038	-15.17645734119673	33.29796734936178	7.190820926542162	24.90878176297657	0	0.02821646755601832	5.880571715129481	-13.23024540414719	43.87886472918444	7.010419832813543	33.49712068935882	0	0.02821646755601832
8.399790100000001	32.86157903098929	43.35293231283546	55.46158207803383	0.2341366603171506	0.04326292228651554	-1.326684523481465	-22.57117169827992	-1.591976316804377	-3.241458145969817	5.899560354604904	2.451982624139334	1.987972377786656	0	-24.74788768789517	-3.395140484746916	-11.58000132048591	9.793848132074926	-0.4439473045988533	4.250290820099795	0	-21.37711699760957	1.659277491615732	3.206407148933037	0	0	0	0.7862536360119244	-15.17647604077634	33.30352547804591	7.115764698384287	24.89441196777652	0	0.02164991372595508	5.876688050541658	-13.23005780669627	43.88715235446348	6.933384658364218	33.49006060347735	0	0.02164991372595508
8.574695800000001	-22.02470376840214	-0.5032652333578823	-257.3932505097287	0.2341366603171506	0.04326292228651554	-1.326684523481465	-22.57117169827992	-1.591976316804377	-3.241458145969817	5.899560354604904	2.451982624139334	1.987972377786656	0	-24.74788768789517	-3.395140484746916	-11.58000132048591	9.793848132074926	-0.4439473045988533	4.250290820099795	0	-21.37711699760957	1.659277491615732	3.206407148933037	0	0	0	0.7863386751405121	-15.1764756786395	33.30342279874715	7.115620290143795	24.89461953741125	0	0.02173346571986472	5.876765720743021	-13.23006143958085	43.88700308591423	6.933177616735364	33.49017067132643	0	0.02173346571986472
8.725650699999999	-32.89607934162335	-71.68095560746856	-260.1156954708302	0.2341366603171506	0.04326292228651554	-1.326684523481465	-22.57117169827992	-1.591976316804377	-3.241458145969817	5.899560354604904	2.451982624139334	1.987972377786656	0	-24.74788768789517	-3.395140484746916	-11.58000132048591	9.793848132074926	-0.4439473045988533	4.250290820099795	0	-21.37711699760957	1.659277491615732	3.206407148933037	0	0	0	0.8011086644458285	-15.17641081520664	33.2840826805055	7.387689042711901	24.94529347179689	0	0.04502913844561963	5.890205474847805	-13.23071216249263	43.85812108929292	7.212722067537509	33.51498776685611	0	0.04502913844561963
8.9004789	61.56700891960155	-144.1807278132457	-136.8520795028937	0.2341366603171506	0.04326292228651554	-1.326684523481465	-22.57117169827992	-1.591976316804377	-3.241458145969817	5.899560354604904	2.451982624139334	1.987972377786656	0	-24.74788768789517	-3.395140484746916	-11.58000132048591	9.793848132074926	-0.4439473045988533	4.250290820099795	0	-21.37711699760957	1.659277491615732	3.206407148933037	0	0	0	0.7832895860156363	-15.17648898478943	33.30735467844667	7.066087005113802	24.88467634899539	0	0.01723022170713467	5.873989160262406	-13.22992795061512	43.89284963876612	6.882416764075192	33.48525926335292	0	0.01723022170713467
9.075378300000001	-72.17518116785246	32.99533040067679	91.10733042701811	0.2341366603171506	0.04326292228651554	-1.326684523481465	-22.57117169827992	-1.591976316804377	-3.241458145969817	5.899560354604904	2.451982624139334	1.987972377786656	0	-24.74788768789517	-3.395140484746916	-11.58000132048591	9.793848132074926	-0.4439473045988533	4.250290820099795	0	-21.37711699760957	1.659277491615732	3.206407148933037	0	0	0	0.7826045539713866	-15.17649197843582	33.30823895331434	7.056997136742515	24.88247976766078	0	0.01624596740365918	5.873365493002486	-13.22989791796269	43.89416311382384	6.873206669856983	33.48416620971456	0	0.01624596740365918
9.250257299999999	72.78428309866004	75.51454694813322	-2.385244273155865	0.2341366603171506	0.04326292228651554	-1.326684523481465	-22.57117169827992	-1.591976316804377	-3.241458145969817	5.899560354604904	2.451982624139334	1.987972377786656	0	-24.74788768789517	-3.395140484746916	-11.58000132048591	9.793848132074926	-0.4439473045988533	4.250290820099795	0	-21.37711699760957	1.659277491615732	3.206407148933037	0	0	0	0.8050799470652753	-15.17639349662597	33.27897093475121	7.448966273773503	24.95814949779485	0	0.05083762972092069	5.893822089948439	-13.23088590451442	43.85052464734989	7.275286871906446	33.52134784123866	0	0.05083762972092069
